<svg id="Layer_1" data-name="Layer 1" xmlns="http://www.w3.org/2000/svg" viewBox="0 0 241.66 112.35"><defs><style>.cls-1{fill:#383838;}.cls-2{fill:#d1d2d3;}.cls-3{fill:#f63200;}.cls-4{fill:#d70000;}</style></defs><title>speedy-logo4</title><path class="cls-1" d="M24.91,57.94a26.88,26.88,0,0,1-8.19-1.63A45.61,45.61,0,0,1,7,50.91L4.34,49.13,15.43,35.64c-1.16-.77-2.07-1.4-2.63-1.81-4.55-3.31-7.18-7.34-7.83-12a16.07,16.07,0,0,1,2.47-11.2,17.49,17.49,0,0,1,8.88-6.9,26.86,26.86,0,0,1,9.21-1.61,30.67,30.67,0,0,1,5.39.49,33.24,33.24,0,0,1,8.52,3l0-2.21L41.82,3A68.69,68.69,0,0,1,54.16,1.92c2.16,0,4.37.1,6.56.3,5.71.52,10.37,1.87,13.87,4a15.8,15.8,0,0,1,5.14,4.92l.32-8.82L116.68,2v.36L151,2l0,1.81A66.39,66.39,0,0,1,168.2,1.62h.63c10.12,0,17.53,3.68,22,10.95L203.7.41l13.16,17L229.25,1.48,246,16.39,227.27,35.46l-.35,20.06H204.09V34.74L195,25.11a21.28,21.28,0,0,1,.12,2.61c.28,7.68-2,13.82-6.78,18.27-3.75,3.45-9,5.78-15.52,6.91a58.73,58.73,0,0,1-9.67.77c-1.71,0-3.5-.07-5.31-.2a56.27,56.27,0,0,1-6.86-.82l-.78-.16L150,54.87l-34.16-1.75-.14,1.75L78.22,52.94,79,32.57A19.05,19.05,0,0,1,72,39a23.49,23.49,0,0,1-8.22,2.69,22.54,22.54,0,0,1-2.49.21l.38,10.95L40.48,54.41l-.06-3a17.07,17.07,0,0,1-4.63,4,21,21,0,0,1-10.67,2.58Z" transform="translate(-4.34 -0.41)"/><path class="cls-2" d="M229.36,2.6l-12.5,16.05L203.61,1.55,190.7,13.8C186.4,6.23,179,2.4,168.83,2.4h-.63a64.81,64.81,0,0,0-18.08,2.4l.05-2.05-34.3.36V2.75L80.8,3.11l-.4,11.12a14.3,14.3,0,0,0-6.2-7.32c-3.4-2.09-8-3.41-13.54-3.92-2.16-.2-4.35-.3-6.49-.3A67.92,67.92,0,0,0,42,3.8l-1.78.33.06,2.83a35,35,0,0,0-9.46-3.53,29.9,29.9,0,0,0-5.26-.48A26.1,26.1,0,0,0,16.59,4.5a16.72,16.72,0,0,0-8.5,6.59A15.32,15.32,0,0,0,5.74,21.77c.62,4.4,3.15,8.25,7.53,11.44.64.48,1.79,1.27,3.23,2.21v.14L5.47,49,7.4,50.27A44.89,44.89,0,0,0,17,55.58a26.09,26.09,0,0,0,7.95,1.59h.21A20.28,20.28,0,0,0,35.4,54.69a17.21,17.21,0,0,0,5.74-5.59l.09,4.48,19.64-1.43-.38-11h.4a20.91,20.91,0,0,0,2.79-.21,22.7,22.7,0,0,0,7.95-2.6,17.83,17.83,0,0,0,8.23-9.24L79,52.21l36,1.84.14-1.75,34.16,1.75.19-2.52v0l1.63.33a55.55,55.55,0,0,0,6.76.81c1.79.13,3.56.19,5.26.19a57.91,57.91,0,0,0,9.54-.75c6.4-1.11,11.48-3.37,15.12-6.71,4.61-4.29,6.81-10.24,6.54-17.7a23.51,23.51,0,0,0-.29-3.9q-.07-.51-.16-1l11,11.63V54.76h21.3l.34-19.61,18.38-18.72Z" transform="translate(-4.34 -0.41)"/><path class="cls-3" d="M125.18,61.29" transform="translate(-4.34 -0.41)"/><path class="cls-3" d="M125.18,64.26" transform="translate(-4.34 -0.41)"/><path class="cls-4" d="M37.87,31.56A11.85,11.85,0,0,1,42,38.89a12,12,0,0,1-1.58,8,15.67,15.67,0,0,1-5.67,6A18.24,18.24,0,0,1,25.35,55a24,24,0,0,1-7.28-1.47A43.45,43.45,0,0,1,9,48.52l7.92-9.63c1.52,3,3.42,4.41,5.67,4.28,1.55,0,2.25-.83,2.09-2.51a5.61,5.61,0,0,0-1.39-3.08,21.32,21.32,0,0,0-4.23-3.29C17,32.92,15.59,32,14.95,31.51q-5.9-4.29-6.69-10a13.18,13.18,0,0,1,2-9.23A14.59,14.59,0,0,1,17.73,6.5a24.85,24.85,0,0,1,13.11-1q4.53.8,11.58,4.79L35.54,21A11,11,0,0,0,31,16.53a3.63,3.63,0,0,0-4.92.83c-1.66,1.9-.67,4.41,2.94,7.6a54.85,54.85,0,0,0,4.36,3.37c1.71,1.18,2.7,1.85,2.94,2A17.44,17.44,0,0,1,37.87,31.56Z" transform="translate(-4.34 -0.41)"/><path class="cls-4" d="M42.77,5.88a66.27,66.27,0,0,1,18.11-.78q7.94.72,12.62,3.61a12.2,12.2,0,0,1,6.13,10.38Q80.15,31.37,71,36.48a20.53,20.53,0,0,1-7.2,2.35,11.94,11.94,0,0,1-5.11-.16l.4,11.5L43.73,51.3ZM65.34,21.5a6.43,6.43,0,0,0-1.12-3.85,6.66,6.66,0,0,0-2.49-2,9,9,0,0,0-3.61-.88l.35,12.65a7.62,7.62,0,0,0,3.42-.48C64.16,26,65.31,24.26,65.34,21.5Z" transform="translate(-4.34 -0.41)"/><path class="cls-4" d="M113.81,17.68,98.06,17l-.35,5.59,9.52-.35-1,11.82-9.2-.32L96.66,39l17.79.35-1,12.46L81.63,50.2l1.63-45,30.87-.32Z" transform="translate(-4.34 -0.41)"/><path class="cls-4" d="M148.1,17.68,132.35,17,132,22.63l9.52-.35-1,11.82-9.2-.32L131,39l17.79.35-1,12.46L115.92,50.2l1.63-45,30.87-.32Z" transform="translate(-4.34 -0.41)"/><path class="cls-4" d="M192.67,27.73q.4,10.31-5.86,16.13-5,4.61-14,6.18a60.35,60.35,0,0,1-14.28.53,54.31,54.31,0,0,1-6.5-.78L150.22,7.11a62.07,62.07,0,0,1,19-2.59q15,0,20.73,11.61a24,24,0,0,1,1.63,4.28,27.81,27.81,0,0,1,.8,3.72A21.19,21.19,0,0,1,192.67,27.73Zm-14.92.51a8.94,8.94,0,0,0-.4-4.09,6.26,6.26,0,0,0-1.87-2.89,6.74,6.74,0,0,0-4.15-1.47,15.25,15.25,0,0,0-5.59.62l-.24,14.93a13.73,13.73,0,0,0,5.72.13,8.25,8.25,0,0,0,4.15-2A8.09,8.09,0,0,0,177.74,28.24Z" transform="translate(-4.34 -0.41)"/><path class="cls-4" d="M230.06,5.69l12.17,10.83L224.82,34.26l-.32,18.38H207.41v-19L191.33,16.53,203.79,4.7l13.48,17.41Z" transform="translate(-4.34 -0.41)"/><path class="cls-1" d="M117.08,100v8.06l-17.76-.51-.09,3L77,109.27,79.15,76.7,71,76.51l-.24,32.57H49.57l1-33-12.91-.29V57.3l43.87.49v1.35L98,59.83l.07-2,2.14-.51a53,53,0,0,1,12.32-1.46,54.11,54.11,0,0,1,5.92.33c5.6.62,10.16,2.28,13.57,4.92a17.6,17.6,0,0,1,6.12,8.71h.33l.47-12.9,36.62-.38L175.33,64a17.6,17.6,0,0,1,7.93-5.59,26.86,26.86,0,0,1,9.21-1.61,30.65,30.65,0,0,1,5.39.49c3.34.59,7.42,2.26,12.49,5.11l2.67,1.5-11,17.05.75.52c1.07.73,1.46,1,1.69,1.18a19.33,19.33,0,0,1,1.8,1.38,14.72,14.72,0,0,1,5.08,9.06,14.93,14.93,0,0,1-1.92,9.85,18.62,18.62,0,0,1-6.74,7,21,21,0,0,1-10.67,2.58h-.21a26.87,26.87,0,0,1-8.2-1.63,42.48,42.48,0,0,1-8.82-4.77l-.26,3.33-37.52-1.92.13-3.68-11.88,8.88ZM194.67,74a1,1,0,0,0,.08.28,9.35,9.35,0,0,0,2.66,3.16c1.15,1,2.53,2.06,4.1,3.17h0l-2-3.55a8.06,8.06,0,0,0-3.39-3.32,1.89,1.89,0,0,0-.81-.28c-.19,0-.45.27-.59.43Z" transform="translate(-4.34 -0.41)"/><path class="cls-2" d="M205.79,84.59a18.68,18.68,0,0,0-1.74-1.33c-.22-.17-.64-.45-1.68-1.16l-1.31-.9c-1.6-1.12-3-2.21-4.17-3.22A10,10,0,0,1,194,74.52c-.25-.65-.1-.9.13-1.16.6-.7,1-.7,1.17-.7a2.65,2.65,0,0,1,1.16.36,8.81,8.81,0,0,1,3.7,3.62l1.73,3.07,10-15.56-2-1.1c-5-2.81-9-4.45-12.25-5a29.88,29.88,0,0,0-5.26-.48,26.1,26.1,0,0,0-8.95,1.56,16.72,16.72,0,0,0-8.5,6.59c-.19.29-.36.59-.53.88l.23-9.23-35.09.36-.47,12.91h-1.64a16.88,16.88,0,0,0-6-8.87c-3.3-2.56-7.73-4.16-13.18-4.77a53.31,53.31,0,0,0-5.84-.32,52.21,52.21,0,0,0-12.14,1.44l-1.57.37-.08,2.15L81,59.9l-.26,4V58.56l-42.33-.48V75l12.94.29-1,33H70l.24-32.58,9.74.22-2.12,32.61,20.63,1.22.09-3,17.74.51V97.42l9.21,14.23L138,102.29l-.16,4.54,36,1.84.3-3.9.17.11a44.91,44.91,0,0,0,9.57,5.31,26.09,26.09,0,0,0,7.95,1.59h.21a20.28,20.28,0,0,0,10.28-2.48,17.85,17.85,0,0,0,6.46-6.76,14.19,14.19,0,0,0,1.83-9.36A14,14,0,0,0,205.79,84.59Z" transform="translate(-4.34 -0.41)"/><path class="cls-4" d="M79.07,73.79l-10.51-.24-.24,32.63H53l1-33-13-.29V60.23l38.09.43Z" transform="translate(-4.34 -0.41)"/><path class="cls-4" d="M98.15,62.72l-1.28,44.8-16.32-1L83.44,62.1Z" transform="translate(-4.34 -0.41)"/><path class="cls-4" d="M126.5,108.59,114.62,90.24v14.87l-15-.43,1.66-44.51a50,50,0,0,1,17.25-1.07q7.62.84,12.12,4.33c3.77,2.89,5.78,7.09,6.07,12.57a13.64,13.64,0,0,1-.43,5.08,12.39,12.39,0,0,1-2,4.28,11.39,11.39,0,0,1-4.49,3.56L139,99.23Zm-5.3-33.46a5.08,5.08,0,0,0-1-3.26,5.75,5.75,0,0,0-2.33-1.71,9,9,0,0,0-3.45-.78l.11,10.81a7.68,7.68,0,0,0,3.26-.4A4.68,4.68,0,0,0,121.2,75.13Z" transform="translate(-4.34 -0.41)"/><path class="cls-4" d="M172.67,72.29l-15.75-.64-.35,5.59,9.52-.35-1,11.82-9.2-.32-.4,5.24,17.79.35-1,12.46-31.86-1.63,1.63-45L173,59.51Z" transform="translate(-4.34 -0.41)"/><path class="cls-4" d="M204.82,86.17A11.85,11.85,0,0,1,209,93.5a12,12,0,0,1-1.58,8,15.67,15.67,0,0,1-5.67,6,18.24,18.24,0,0,1-9.41,2.19,24,24,0,0,1-7.28-1.47,43.46,43.46,0,0,1-9.07-5.06l7.92-9.63c1.52,3,3.42,4.41,5.67,4.28,1.55,0,2.25-.83,2.09-2.51a5.61,5.61,0,0,0-1.39-3.08A21.32,21.32,0,0,0,186,88.9c-2.11-1.36-3.48-2.3-4.12-2.78q-5.9-4.29-6.69-10a13.18,13.18,0,0,1,2-9.23,14.59,14.59,0,0,1,7.44-5.75,24.85,24.85,0,0,1,13.11-1q4.53.8,11.58,4.79l-6.87,10.7a11,11,0,0,0-4.57-4.47A3.63,3.63,0,0,0,193,72c-1.66,1.9-.67,4.41,2.94,7.6a54.79,54.79,0,0,0,4.36,3.37c1.71,1.18,2.7,1.85,2.94,2A17.37,17.37,0,0,1,204.82,86.17Z" transform="translate(-4.34 -0.41)"/></svg>