<svg id="Layer_1" data-name="Layer 1" xmlns="http://www.w3.org/2000/svg" viewBox="0 0 113.16 113.16"><defs><style>.cls-1{fill:#484848;}</style></defs><title>tire</title><path class="cls-1" d="M153,61.43A56.58,56.58,0,1,1,96.46,4.79,56.68,56.68,0,0,1,153,61.43Zm-56.63-40a39.94,39.94,0,1,0,40,40.14A39.86,39.86,0,0,0,96.37,21.44Z" transform="translate(-39.84 -4.79)"/><path class="cls-1" d="M126.49,40.68a37.07,37.07,0,0,1,6.35,19.52c-1.86-.13-3.61-.3-5.36-.38a22.18,22.18,0,0,0-8.79,1.05,17.17,17.17,0,0,0-4.79,2.66c-2.09,1.71-2.58,4.13-1.93,6.73a14,14,0,0,0,4.86,7.3c2.56,2.14,5.34,4,8.17,6.11a36.23,36.23,0,0,1-16.42,11.76c-.17-.75-.32-1.41-.46-2.07A27.84,27.84,0,0,0,104,82.93a16.59,16.59,0,0,0-3.66-3.79c-2.54-1.84-5.27-1.71-7.89,0a14,14,0,0,0-4.36,5,33.46,33.46,0,0,0-3.52,10.1c-.07.33-.15.67-.26,1.17a36.5,36.5,0,0,1-16.65-12c.93-.53,1.78-1,2.62-1.52a28.26,28.26,0,0,0,8.37-7.19,15.3,15.3,0,0,0,1.78-3.09c1.68-4,.44-7.54-3.29-9.68a18.28,18.28,0,0,0-8.76-2.24c-2.73-.07-5.46.14-8.33.22a36.54,36.54,0,0,1,6.29-19.19c1.84,1.49,3.58,3,5.44,4.38a21.3,21.3,0,0,0,8.64,4c5.22,1,9-1.86,9.45-7.16.46-5.09-1.07-9.74-3.13-14.28l-.62-1.35a37,37,0,0,1,20.36-.07c-1,3.2-2.27,6.25-3,9.41a21.5,21.5,0,0,0-.36,6.76c.48,5,4.3,7.66,9.24,6.72,4.14-.78,7.58-2.94,10.79-5.53C124.24,42.72,125.28,41.74,126.49,40.68Zm-19,20.51a11.11,11.11,0,1,0-11.43,11A11.11,11.11,0,0,0,107.51,61.2Z" transform="translate(-39.84 -4.79)"/><path class="cls-1" d="M100,61a3.61,3.61,0,1,1-7.22,0A3.61,3.61,0,0,1,100,61Z" transform="translate(-39.84 -4.79)"/><path class="cls-1" d="M90.33,57.65a2.06,2.06,0,0,1-2.12-2.11,2.1,2.1,0,0,1,4.2,0A2.05,2.05,0,0,1,90.33,57.65Z" transform="translate(-39.84 -4.79)"/><path class="cls-1" d="M91.22,64.41a2.2,2.2,0,0,1-2.14,2.16A2.14,2.14,0,0,1,87,64.39,2.12,2.12,0,0,1,89,62.31,2.19,2.19,0,0,1,91.22,64.41Z" transform="translate(-39.84 -4.79)"/><path class="cls-1" d="M100,68.55a2.11,2.11,0,0,1-2.16,2.09,2.06,2.06,0,0,1-2.06-2.06,2.13,2.13,0,0,1,2.09-2.17A2.16,2.16,0,0,1,100,68.55Z" transform="translate(-39.84 -4.79)"/><path class="cls-1" d="M101.69,54.06A2.1,2.1,0,1,1,99.51,52,2.06,2.06,0,0,1,101.69,54.06Z" transform="translate(-39.84 -4.79)"/><path class="cls-1" d="M104.27,60.39a2.19,2.19,0,0,1,2,2.29,2.13,2.13,0,0,1-2.32,1.92A2.07,2.07,0,0,1,102,62.4,2.14,2.14,0,0,1,104.27,60.39Z" transform="translate(-39.84 -4.79)"/></svg>