<svg id="Layer_1" data-name="Layer 1" xmlns="http://www.w3.org/2000/svg" viewBox="0 0 194.73 100.22"><defs><style>.cls-1{fill:#47484b;}</style></defs><title>truck</title><path class="cls-1" d="M49.73,101.13c2.35,7.59,10.41,13.75,18,13.75s11.79-6.16,9.38-13.75-10.48-13.75-18-13.75S47.38,93.53,49.73,101.13Zm6.64,0c-1.22-3.91.95-7.09,4.83-7.09s8,3.17,9.28,7.09-.93,7.09-4.83,7.09S57.59,105,56.37,101.13Z" transform="translate(-1.96 -14.66)"/><path class="cls-1" d="M118.73,101.13c2.51,7.59,10.7,13.75,18.3,13.75s11.67-6.16,9.09-13.75-10.76-13.75-18.3-13.75S116.22,93.53,118.73,101.13Zm6.64,0c-1.3-3.91.8-7.09,4.68-7.09s8.11,3.17,9.43,7.09-.78,7.09-4.69,7.09S126.67,105,125.37,101.13Z" transform="translate(-1.96 -14.66)"/><path class="cls-1" d="M131.14,85.58h44.18l5.43,15.55H148.42C145.87,93.63,138.63,87.34,131.14,85.58Z" transform="translate(-1.96 -14.66)"/><path class="cls-1" d="M7.74,93.51,10,101h4.09l0,.16H47.52c-2.73-8.82,2.15-16,10.89-16s18.11,7.15,20.92,16h37.09c-2.47-7.5.56-13.79,6.87-15.55H81.83l-19.25-60H32.83L22.37,60.51H2l9.86,33ZM62.22,65.27h3.5l2.57,8.08H64.78Zm-27.32-5,4.49-26.82H55.61l8.53,26.82Z" transform="translate(-1.96 -14.66)"/><path class="cls-1" d="M196.69,83.41H84L61.77,14.66H172.33ZM92,72.41h89.11L164.56,25.66H76.89Z" transform="translate(-1.96 -14.66)"/></svg>