<svg id="Layer_1" data-name="Layer 1" xmlns="http://www.w3.org/2000/svg" viewBox="0 0 114.23 101.05"><defs><style>.cls-1{fill:#47484b;}</style></defs><title>wrench</title><path class="cls-1" d="M155.61,21.12,145.44,10.93a3.63,3.63,0,0,0-5.12,0,3.54,3.54,0,0,0-1,3,3.72,3.72,0,0,0-2.17.78l-.07-.08L110.75,41a10.08,10.08,0,0,1-1.65,6.69l2.78,2.81.07-.07.27.27-5.82,5.81L87.28,37.45a22.81,22.81,0,0,0-28-28.2L72.25,22.19l-3.4,12.68-12.69,3.4L43.23,25.32A22.85,22.85,0,0,0,72.4,53l.07.07,18.7,18.69L73.38,89.57l-1-.95-5,4L59,105.92l2.15,2.15,13.27-8.42,4-5-1-1L95.3,75.91l30.41,30.42A10.79,10.79,0,0,0,141,91.08l-30.44-30.4L116.24,55l2.5,2.54a10.07,10.07,0,0,1,6.77-1.71l26-26,.37-.36-.08-.08a3.61,3.61,0,0,0,.77-2.16,3.52,3.52,0,0,0,3-1A3.59,3.59,0,0,0,155.61,21.12ZM134.27,96.28a4.12,4.12,0,1,1-4.11,4.12A4.11,4.11,0,0,1,134.27,96.28ZM119.5,42.46l-1.71-1.7,19.54-19.54,1.7,1.7Zm6.36,6.38-1.71-1.7L143.7,27.59l1.7,1.7Z" transform="translate(-42.43 -8.45)"/></svg>